<?xml version="1.0" encoding="UTF-8" standalone="no"?>
<!-- Created with Inkscape (http://www.inkscape.org/) -->

<svg
   xmlns:dc="http://purl.org/dc/elements/1.1/"
   xmlns:cc="http://creativecommons.org/ns#"
   xmlns:rdf="http://www.w3.org/1999/02/22-rdf-syntax-ns#"
   xmlns:svg="http://www.w3.org/2000/svg"
   xmlns="http://www.w3.org/2000/svg"
   xmlns:sodipodi="http://sodipodi.sourceforge.net/DTD/sodipodi-0.dtd"
   xmlns:inkscape="http://www.inkscape.org/namespaces/inkscape"
   width="167.21973mm"
   height="48.171249mm"
   viewBox="0 0 167.21973 48.171249"
   version="1.1"
   id="svg879"
   inkscape:version="0.92.4 (5da689c313, 2019-01-14)"
   sodipodi:docname="header.svg">
  <defs
     id="defs873" />
  <sodipodi:namedview
     id="base"
     pagecolor="#ffffff"
     bordercolor="#666666"
     borderopacity="1.0"
     inkscape:pageopacity="0.0"
     inkscape:pageshadow="2"
     inkscape:zoom="0.7"
     inkscape:cx="318.10907"
     inkscape:cy="158.38366"
     inkscape:document-units="mm"
     inkscape:current-layer="layer1"
     showgrid="false"
     showguides="true"
     inkscape:guide-bbox="true"
     fit-margin-top="0"
     fit-margin-left="0"
     fit-margin-right="0"
     fit-margin-bottom="0"
     inkscape:window-width="1920"
     inkscape:window-height="971"
     inkscape:window-x="1050"
     inkscape:window-y="0"
     inkscape:window-maximized="1">
    <sodipodi:guide
       position="209.37273,48.081305"
       orientation="0,1"
       id="guide1472"
       inkscape:locked="false" />
  </sodipodi:namedview>
  <metadata
     id="metadata876">
    <rdf:RDF>
      <cc:Work
         rdf:about="">
        <dc:format>image/svg+xml</dc:format>
        <dc:type
           rdf:resource="http://purl.org/dc/dcmitype/StillImage" />
        <dc:title />
      </cc:Work>
    </rdf:RDF>
  </metadata>
  <g
     inkscape:label="Capa 1"
     inkscape:groupmode="layer"
     id="layer1"
     transform="translate(76.3251,-39.130285)">
    <g
       id="g847">
      <rect
         style="opacity:1;fill:#ffffff;fill-opacity:1;stroke:#ffffff;stroke-width:1;stroke-linecap:round;stroke-miterlimit:4;stroke-dasharray:none;stroke-opacity:1"
         id="rect834"
         width="38.742561"
         height="39.309525"
         x="40.847519"
         y="44.21225" />
      <rect
         y="43.834274"
         x="-19.62867"
         height="39.309525"
         width="38.742561"
         id="rect832"
         style="opacity:1;fill:#ffffff;fill-opacity:1;stroke:#ffffff;stroke-width:1;stroke-linecap:round;stroke-miterlimit:4;stroke-dasharray:none;stroke-opacity:1" />
      <path
         style="fill:#7952b3;fill-opacity:1;stroke-width:2.50967264"
         inkscape:connector-curvature="0"
         id="path4"
         d="m 60.201338,61.396694 h -4.55254 v -7.62438 h 5.40081 c 2.93632,0 4.60274,1.31005 4.60274,3.67918 0,2.52975 -1.93998,3.9452 -5.45603,3.9452 z m 0.81314,3.02667 h -5.36317 v 8.40238 h 5.59908 c 3.66161,0 5.60159,-1.46816 5.60159,-4.2288 0,-2.76064 -1.99519,-4.17358 -5.8375,-4.17358 z m 29.880146,-2.65022 v 3.05678 c -2.830895,0.27105 -4.560068,2.36913 -5.586518,5.69194 -1.02144,3.31026 -1.16198,7.37091 -1.05406,10.50549 0.11293,3.26258 -2.429368,6.27418 -5.865108,6.27418 h -35.21573 c -3.43825,0 -5.98055,-3.0116 -5.8651,-6.27418 0.10791,-3.13458 -0.0326,-7.19523 -1.05406,-10.50549 -1.02897,-3.32281 -2.76064,-5.42089 -5.59155,-5.69194 v -3.05678 c 2.83091,-0.27104 4.56509,-2.36913 5.58904,-5.69194 1.02394,-3.31025 1.16448,-7.3709 1.05406,-10.50549 -0.11294,-3.26257 2.42936,-6.27418 5.86761,-6.27418 h 35.21573 c 3.43825,0 5.978038,3.01161 5.865108,6.27418 -0.10792,3.13459 0.0326,7.19524 1.05406,10.50549 1.02645,3.32281 2.755623,5.4209 5.586518,5.69194 z m -19.894156,7.06975 c 0,-3.3981 -2.39172,-5.85507 -5.94291,-6.24407 v -0.14305 c 2.61006,-0.42413 4.65795,-2.84848 4.65795,-5.5539 0,-3.85737 -3.04423,-6.36955 -7.68462,-6.36955 h -10.44023 v 25.52839 h 10.49294 c 5.56645,0 8.91687,-2.7255 8.91687,-7.21782 z" />
      <g
         inkscape:label="Capa 1"
         id="layer1-6"
         transform="translate(-127.27124,40.209475)">
        <g
           id="g864"
           transform="matrix(0.47837913,0,0,0.47837913,77.052184,-33.87868)">
          <path
             inkscape:connector-curvature="0"
             id="path47"
             d="m -54.428569,85.333334 6.992559,61.421126 39.120534,21.92262 0.1889879,-99.92526 z"
             style="fill:#dd0031;fill-opacity:1;stroke:#c3002f;stroke-width:0.26458332px;stroke-linecap:butt;stroke-linejoin:miter;stroke-opacity:1" />
          <path
             style="fill:#c3002f;fill-opacity:1;stroke:#c3002f;stroke-width:0.26458332px;stroke-linecap:butt;stroke-linejoin:miter;stroke-opacity:1"
             d="M 37.94699,85.333335 30.954431,146.75446 -8.1661025,168.67708 -8.3550905,68.751821 Z"
             id="path49"
             inkscape:connector-curvature="0" />
          <path
             inkscape:connector-curvature="0"
             id="path872"
             d="m -8.4169356,79.60699 -29.0096694,64.91738 h 10.96131 l 5.48065,-14.55209 24.9464294,0.18899 5.5751499,14.2686 11.0558007,0.0945 z"
             style="fill:#ffffff;stroke:#ffffff;stroke-width:0.26458332px;stroke-linecap:butt;stroke-linejoin:miter;stroke-opacity:1" />
          <path
             style="fill:#c3002f;fill-opacity:1;stroke:#c3002f;stroke-width:0.26458332px;stroke-linecap:butt;stroke-linejoin:miter;stroke-opacity:1"
             d="m -8.5505654,101.25849 8.41899001,20.11203 -8.28536001,0.0334 z"
             id="path870"
             inkscape:connector-curvature="0" />
          <path
             inkscape:connector-curvature="0"
             id="path868"
             d="m -8.4014229,101.32936 -8.4189901,20.11203 8.2853601,0.0334 z"
             style="fill:#dd0031;fill-opacity:1;stroke:#dd0031;stroke-width:0.26458332px;stroke-linecap:butt;stroke-linejoin:miter;stroke-opacity:1" />
        </g>
      </g>
      <path
         d="m -21.164542,39.220231 c -1.954,0 -3.526,1.572 -3.526,3.526 v 40.948 c 0,1.954 1.572,3.526 3.526,3.526 h 40.948 c 1.954001,0 3.525999,-1.572 3.525999,-3.526 v -40.948 c 0,-1.954 -1.571998,-3.526 -3.525999,-3.526 z m 6.734,10.646 27.674,0.038 -0.01799,27.672 H 6.2974588 l 0.02,-20.764 h -6.91200001 l -0.016,20.748 H -14.464541 Z"
         id="path4-7"
         style="fill:#cb3837;fill-opacity:1;stroke-width:2"
         inkscape:connector-curvature="0" />
    </g>
  </g>
</svg>
